HIERARCHY
ROOT Hips
{
 OFFSET 0.000000 0.000000 0.000000
 CHANNELS 6 Xposition Yposition Zposition Yrotation Xrotation Zrotation
 JOINT Chest
 {
  OFFSET 0.000000 9.585900 0.002600
  CHANNELS 3 Yrotation Xrotation Zrotation
  JOINT Chest2
  {
   OFFSET 0.000000 9.601200 -0.005300
   CHANNELS 3 Yrotation Xrotation Zrotation
   JOINT Chest3
   {
    OFFSET 0.000000 9.561800 0.000000
    CHANNELS 3 Yrotation Xrotation Zrotation
    JOINT Chest4
    {
     OFFSET 0.000000 9.552100 0.000000
     CHANNELS 3 Yrotation Xrotation Zrotation
     JOINT Neck
     {
      OFFSET 0.000000 14.453000 0.000000
      CHANNELS 3 Yrotation Xrotation Zrotation
      JOINT Head
      {
       OFFSET 0.000000 8.936500 -0.011300
       CHANNELS 3 Yrotation Xrotation Zrotation
       End Site
       {
        OFFSET 0.000000 17.073600 -0.006000
       }
      }
     }
     JOINT RightCollar
     {
      OFFSET -2.921100 9.558500 0.000000
      CHANNELS 3 Yrotation Xrotation Zrotation
      JOINT RightShoulder
      {
       OFFSET -13.519700 0.000000 0.000000
       CHANNELS 3 Yrotation Xrotation Zrotation
       JOINT RightElbow
       {
        OFFSET 0.000000 -29.696600 0.000000
        CHANNELS 3 Yrotation Xrotation Zrotation
        JOINT RightWrist
        {
         OFFSET 0.000000 -24.004700 0.000000
         CHANNELS 3 Yrotation Xrotation Zrotation
         End Site
         {
          OFFSET 0.000000 -17.728500 0.000000
         }
        }
       }
      }
     }
     JOINT LeftCollar
     {
      OFFSET 2.921100 9.558500 0.000000
      CHANNELS 3 Yrotation Xrotation Zrotation
      JOINT LeftShoulder
      {
       OFFSET 13.519700 0.000000 0.000000
       CHANNELS 3 Yrotation Xrotation Zrotation
       JOINT LeftElbow
       {
        OFFSET 0.000000 -29.696600 0.000000
        CHANNELS 3 Yrotation Xrotation Zrotation
        JOINT LeftWrist
        {
         OFFSET 0.000000 -24.004700 0.000000
         CHANNELS 3 Yrotation Xrotation Zrotation
         End Site
         {
          OFFSET 0.000000 -17.728500 0.000000
         }
        }
       }
      }
     }
    }
   }
  }
 }
 JOINT RightHip
 {
  OFFSET -7.771700 -0.012900 -0.001300
  CHANNELS 3 Yrotation Xrotation Zrotation
  JOINT RightKnee
  {
   OFFSET 0.000000 -40.869800 0.001200
   CHANNELS 3 Yrotation Xrotation Zrotation
   JOINT RightAnkle
   {
    OFFSET 0.000000 -39.717900 0.002100
    CHANNELS 3 Yrotation Xrotation Zrotation
    JOINT RightToe
    {
     OFFSET 0.000000 -4.965400 11.033500
     CHANNELS 3 Yrotation Xrotation Zrotation
     End Site
     {
      OFFSET 0.000000 -1.423100 5.872300
     }
    }
   }
  }
 }
 JOINT LeftHip
 {
  OFFSET 7.771700 -0.012900 -0.001300
  CHANNELS 3 Yrotation Xrotation Zrotation
  JOINT LeftKnee
  {
   OFFSET 0.000000 -40.869800 0.001200
   CHANNELS 3 Yrotation Xrotation Zrotation
   JOINT LeftAnkle
   {
    OFFSET 0.000000 -39.717900 0.002100
    CHANNELS 3 Yrotation Xrotation Zrotation
    JOINT LeftToe
    {
     OFFSET 0.000000 -4.965400 11.033500
     CHANNELS 3 Yrotation Xrotation Zrotation
     End Site
     {
      OFFSET 0.000000 -1.423100 5.872300
     }
    }
   }
  }
 }
}
MOTION
Frames: 12
Frame Time: 0.008333
0.000000 85.388000 0.000000 0.000000 -5.767877 0.000000 0.000000 11.653817 0.000000 0.000000 -5.885947 0.000000 0.000000 -0.000000 0.000000 0.000000 -0.000000 0.000000 0.000000 12.528835 0.000000 0.000000 0.711642 0.000000 0.000000 -0.000000 0.000000 0.000000 0.000000 -90.000000 0.000000 -2.309062 0.000000 0.000000 2.309062 0.000000 0.000000 -0.000000 0.000000 0.000000 -0.000000 90.000000 0.000000 -2.309062 0.000000 0.000000 2.309062 0.000000 0.000000 8.520406 0.000000 0.000000 1.905762 0.000000 -0.000000 -4.658285 0.000000 0.000000 -0.000000 0.000000 0.000000 8.520406 0.000000 0.000000 1.905762 0.000000 -0.000000 -4.658285 0.000000 0.000000 -0.000000 0.000000
-54.201203 57.750919 11.395922 -179.668598 -48.916166 -4.453132 5.321358 20.527225 3.115189 2.817046 11.762983 1.525364 3.590722 14.690500 2.010115 2.816979 11.762913 1.525311 4.526043 15.991031 6.589602 6.150810 -6.331922 10.555455 3.712420 -6.152600 -2.563729 -6.184965 -44.730804 -35.410893 -52.923748 -26.914610 52.491340 -7.203558 -7.551922 -30.229629 2.325666 2.221268 10.594670 23.080458 -0.191468 3.097995 77.011570 -73.361698 -88.073904 -4.762677 5.979371 -3.030629 4.277978 -22.291450 -3.374428 -31.799680 75.375256 -36.161504 6.445539 -17.244692 12.601642 -0.027754 -0.082506 0.018838 -8.004629 -20.398176 5.280265 89.332170 81.407151 88.876553 0.442006 -21.623329 -18.342374 0.048781 0.056774 0.039517
-54.208028 57.750228 11.395878 -179.633009 -48.925138 -4.458708 5.324008 20.510453 3.101551 2.865360 11.714507 1.511797 3.613890 14.661647 2.003469 2.835710 11.739926 1.519698 4.485689 16.040667 6.685140 6.146736 -6.391926 10.666031 3.712699 -6.234448 -2.565412 -5.653782 -44.839310 -35.488459 -52.393714 -26.598583 51.938559 -7.242630 -7.550473 -30.262829 2.309600 2.287343 10.615887 23.053557 -0.181783 3.098318 76.936011 -73.353641 -88.000791 -4.766394 5.978857 -3.044144 4.266656 -22.276597 -3.392119 -31.797624 75.369740 -36.179770 6.440397 -17.233749 12.617141 -0.029853 -0.085266 0.015987 -8.022134 -20.395170 5.262323 89.352261 81.415445 88.886961 0.440114 -21.620817 -18.340502 0.053855 0.053773 0.039064
-54.214278 57.749866 11.395814 -179.588064 -48.936849 -4.480079 5.369370 20.456708 3.097957 2.867892 11.705039 1.506686 3.637126 14.632906 1.994287 2.854588 11.717008 1.512066 4.536929 15.951567 6.741384 6.077704 -6.321047 10.874900 3.697625 -6.317893 -2.561802 -5.113299 -44.971099 -35.538874 -51.827947 -26.285896 51.357527 -7.274151 -7.536249 -30.297417 2.296111 2.349662 10.650002 23.002121 -0.179460 3.142300 76.881265 -73.297300 -87.928849 -4.773066 5.978546 -3.058971 4.253676 -22.251458 -3.397543 -31.820567 75.355360 -36.213521 6.439246 -17.231506 12.630235 -0.031012 -0.081845 0.014268 -8.060308 -20.391362 5.250260 89.417955 81.418044 88.936371 0.444943 -21.614828 -18.340311 0.054766 0.048956 0.038491
-54.220413 57.749561 11.395981 -179.555257 -48.949478 -4.498360 5.417822 20.404654 3.088746 2.840386 11.730652 1.522579 3.686074 14.573191 1.952408 2.873454 11.695369 1.502366 4.580697 15.934290 6.829835 6.074748 -6.280457 11.062892 3.671584 -6.396520 -2.556194 -4.552330 -45.120558 -35.570762 -51.242196 -25.982681 50.750968 -7.310717 -7.509666 -30.331149 2.287667 2.414400 10.699375 22.956835 -0.181223 3.176697 76.819917 -73.243113 -87.860994 -4.805482 5.975089 -3.073580 4.245948 -22.229000 -3.396190 -31.842254 75.339391 -36.244020 6.437264 -17.225922 12.640755 -0.032103 -0.081556 0.017615 -8.087172 -20.383731 5.239280 89.466127 81.415459 88.975823 0.447119 -21.613178 -18.340430 0.054556 0.047100 0.035468
-54.226504 57.749905 11.395884 -179.526303 -48.966663 -4.519291 5.451428 20.370175 3.079670 2.831468 11.743227 1.535078 3.727429 14.519063 1.905982 2.891526 11.675674 1.490954 4.623941 15.962092 6.936481 6.118555 -6.229949 11.245697 3.640765 -6.474560 -2.552739 -3.956476 -45.271789 -35.599221 -50.664063 -25.673825 50.131169 -7.350155 -7.485625 -30.369152 2.284803 2.482727 10.755124 22.941172 -0.186146 3.162235 76.737332 -73.282844 -87.812306 -4.761206 5.982371 -3.069856 4.244223 -22.200653 -3.387983 -31.854693 75.322522 -36.260600 6.426284 -17.218900 12.650863 -0.029946 -0.080553 0.022507 -8.108740 -20.368674 5.232866 89.495544 81.411701 89.000337 0.447597 -21.613980 -18.345624 0.053219 0.047488 0.037123
-54.233118 57.750817 11.395544 -179.500805 -48.987562 -4.539454 5.481175 20.341982 3.067924 2.856415 11.721208 1.524119 3.740513 14.501153 1.892463 2.908489 11.657984 1.479098 4.679202 16.008258 7.048709 6.183816 -6.145927 11.434331 3.609703 -6.555616 -2.557850 -3.320175 -45.416809 -35.633473 -50.116782 -25.341026 49.508819 -7.394354 -7.470214 -30.401677 2.285686 2.546418 10.807068 22.950559 -0.180760 3.082882 76.617486 -73.316243 -87.729743 -4.762115 5.987020 -3.077831 4.243165 -22.168958 -3.377811 -31.870223 75.309439 -36.283021 6.417096 -17.217526 12.663264 -0.025287 -0.070354 0.013828 -8.128875 -20.350104 5.226867 89.553092 81.412765 89.054326 0.447373 -21.617940 -18.350776 0.056323 0.045516 0.039416
-54.240705 57.751156 11.395898 -179.476146 -49.002975 -4.557533 5.504270 20.312958 3.050405 2.880874 11.697991 1.514673 3.749485 14.488343 1.877687 2.923522 11.642047 1.467139 4.724672 16.067375 7.165128 6.283912 -6.029661 11.620013 3.582451 -6.642014 -2.575410 -2.643514 -45.553073 -35.679032 -49.614793 -24.969063 48.893213 -7.451143 -7.458267 -30.414730 2.286896 2.595797 10.856747 22.938026 -0.173271 3.052150 76.520753 -73.302089 -87.650160 -4.783728 5.987220 -3.084831 4.243083 -22.140774 -3.368629 -31.858829 75.293836 -36.286094 6.406483 -17.219141 12.675373 -0.035582 -0.064547 0.023282 -8.154439 -20.340288 5.210594 89.605728 81.420873 89.107269 0.475375 -21.612937 -18.362901 0.053477 0.041554 0.039540
-54.248998 57.751942 11.396071 -179.440390 -49.020215 -4.583409 5.517082 20.291084 3.029539 2.926739 11.640566 1.466561 3.745091 14.509098 1.909575 2.937089 11.627446 1.455056 4.794127 16.139273 7.283057 6.375118 -5.898664 11.813977 3.560199 -6.735500 -2.602729 -1.929020 -45.681150 -35.738715 -49.164208 -24.547499 48.291617 -7.525803 -7.455204 -30.411716 2.285467 2.625120 10.911663 22.913517 -0.155509 3.064805 76.425915 -73.269287 -87.565950 -4.780256 5.987490 -3.085103 4.248727 -22.103908 -3.365998 -31.880627 75.272648 -36.290333 6.386262 -17.228609 12.671812 -0.029290 -0.048759 0.035344 -8.206609 -20.331376 5.185266 89.707637 81.395109 89.189742 0.485476 -21.604486 -18.361499 0.045058 0.035781 0.027819
-54.256994 57.751376 11.397712 -179.427096 -49.026308 -4.596602 5.534990 20.268897 3.014677 2.956038 11.606579 1.432659 3.736554 14.531890 1.950048 2.961454 11.590115 1.395912 4.883805 16.218893 7.401606 6.450577 -5.762009 12.015746 3.542346 -6.838258 -2.633643 -1.184516 -45.806660 -35.806876 -48.754757 -24.078103 47.702602 -7.620436 -7.471545 -30.410515 2.279167 2.632798 10.975418 22.887848 -0.116468 3.064340 76.311366 -73.252597 -87.461859 -4.774424 5.991387 -3.084391 4.249633 -22.089350 -3.360586 -31.841990 75.263217 -36.260043 6.375799 -17.228850 12.681371 -0.018436 -0.041144 0.035788 -8.233412 -20.330174 5.172718 89.759088 81.389791 89.237924 0.499661 -21.601283 -18.371559 0.040084 0.034345 0.024827
-54.265400 57.750388 11.399935 -179.424002 -49.028374 -4.600891 5.541802 20.261695 3.009785 2.983332 11.571849 1.389430 3.738573 14.541363 1.975224 2.984773 11.557383 1.338219 4.919955 16.281347 7.520896 6.573852 -5.594338 12.202660 3.530052 -6.954227 -2.664346 -0.422302 -45.934190 -35.878054 -48.367545 -23.552645 47.130468 -7.727809 -7.512174 -30.427644 2.266681 2.624733 11.045263 22.861601 -0.060409 3.049972 76.255126 -73.290594 -87.408817 -4.728320 6.018394 -3.089008 4.250443 -22.083654 -3.355193 -31.790117 75.252287 -36.228263 6.364848 -17.220077 12.697442 -0.025502 -0.038218 0.033109 -8.252395 -20.332177 5.160093 89.798237 81.382633 89.273657 0.509339 -21.599659 -18.379889 0.047036 0.032918 0.022431
-54.272775 57.751641 11.400572 -179.412831 -49.046075 -4.617387 5.566343 20.244566 2.989686 2.979939 11.582017 1.404965 3.788694 14.470523 1.870833 2.983731 11.580541 1.397720 5.005627 16.371002 7.634058 6.647010 -5.457342 12.395079 3.528520 -7.082621 -2.695627 0.338319 -46.070139 -35.947857 -47.982980 -22.970268 46.579874 -7.834918 -7.565430 -30.461926 2.252986 2.611122 11.113877 22.828849 -0.003605 3.053265 76.196556 -73.305969 -87.342775 -4.726145 6.020561 -3.089262 4.252423 -22.054241 -3.343150 -31.791736 75.233574 -36.226610 6.346316 -17.223955 12.698272 -0.023049 -0.026788 0.027606 -8.276962 -20.315267 5.152473 89.836172 81.366813 89.301059 0.517826 -21.598719 -18.382721 0.030523 0.035088 0.017670
